<mxfile host="app.diagrams.net" modified="2022-11-11T07:37:07.176Z" agent="5.0 (Windows NT 10.0; Win64; x64) AppleWebKit/537.36 (KHTML, like Gecko) Chrome/107.0.0.0 Safari/537.36" etag="wjX4W9paVGay9zsa6Eo_" version="20.5.3" type="github">
  <diagram id="R2lEEEUBdFMjLlhIrx00" name="Page-1">
    <mxGraphModel dx="2272" dy="1798" grid="1" gridSize="10" guides="1" tooltips="1" connect="1" arrows="1" fold="1" page="1" pageScale="1" pageWidth="850" pageHeight="1100" math="0" shadow="1" extFonts="Permanent Marker^https://fonts.googleapis.com/css?family=Permanent+Marker">
      <root>
        <mxCell id="0" />
        <mxCell id="1" parent="0" />
        <mxCell id="C-vyLk0tnHw3VtMMgP7b-12" value="" style="edgeStyle=entityRelationEdgeStyle;endArrow=ERzeroToMany;startArrow=ERone;endFill=1;startFill=0;sketch=1;curved=1;rounded=0;strokeColor=#788AA3;fontColor=#46495D;" parent="1" edge="1">
          <mxGeometry width="100" height="100" relative="1" as="geometry">
            <mxPoint x="700" y="205" as="sourcePoint" />
            <mxPoint x="770" y="105" as="targetPoint" />
          </mxGeometry>
        </mxCell>
        <mxCell id="GHRY8w92b_aW7LeH_ERA-46" value="" style="rounded=0;whiteSpace=wrap;html=1;sketch=1;fillColor=#B2C9AB;strokeColor=#788AA3;fontColor=#46495D;movable=1;resizable=1;rotatable=1;deletable=1;editable=1;connectable=1;" parent="1" vertex="1">
          <mxGeometry x="-610" y="-15" width="320" height="530" as="geometry" />
        </mxCell>
        <mxCell id="GHRY8w92b_aW7LeH_ERA-1" value="SysGrading" style="shape=table;startSize=30;container=1;collapsible=1;childLayout=tableLayout;fixedRows=1;rowLines=0;fontStyle=1;align=center;resizeLast=1;rounded=0;sketch=1;fillColor=#B2C9AB;strokeColor=#788AA3;fontColor=#46495D;dashed=1;movable=1;resizable=1;rotatable=1;deletable=1;editable=1;connectable=1;" parent="1" vertex="1">
          <mxGeometry x="-550" y="170" width="229" height="160" as="geometry" />
        </mxCell>
        <mxCell id="GHRY8w92b_aW7LeH_ERA-2" value="" style="shape=partialRectangle;collapsible=0;dropTarget=0;pointerEvents=0;fillColor=none;points=[[0,0.5],[1,0.5]];portConstraint=eastwest;top=0;left=0;right=0;bottom=1;rounded=0;sketch=1;strokeColor=#788AA3;fontColor=#46495D;movable=0;resizable=0;rotatable=0;deletable=0;editable=0;connectable=0;" parent="GHRY8w92b_aW7LeH_ERA-1" vertex="1">
          <mxGeometry y="30" width="229" height="30" as="geometry" />
        </mxCell>
        <mxCell id="GHRY8w92b_aW7LeH_ERA-3" value="PK" style="shape=partialRectangle;overflow=hidden;connectable=0;fillColor=none;top=0;left=0;bottom=0;right=0;fontStyle=1;rounded=0;sketch=1;strokeColor=#788AA3;fontColor=#46495D;movable=0;resizable=0;rotatable=0;deletable=0;editable=0;" parent="GHRY8w92b_aW7LeH_ERA-2" vertex="1">
          <mxGeometry width="30" height="30" as="geometry">
            <mxRectangle width="30" height="30" as="alternateBounds" />
          </mxGeometry>
        </mxCell>
        <mxCell id="GHRY8w92b_aW7LeH_ERA-4" value="grading_id int NOT NULL " style="shape=partialRectangle;overflow=hidden;connectable=0;fillColor=none;top=0;left=0;bottom=0;right=0;align=left;spacingLeft=6;fontStyle=5;rounded=0;sketch=1;strokeColor=#788AA3;fontColor=#46495D;movable=0;resizable=0;rotatable=0;deletable=0;editable=0;" parent="GHRY8w92b_aW7LeH_ERA-2" vertex="1">
          <mxGeometry x="30" width="199" height="30" as="geometry">
            <mxRectangle width="199" height="30" as="alternateBounds" />
          </mxGeometry>
        </mxCell>
        <mxCell id="GHRY8w92b_aW7LeH_ERA-5" value="" style="shape=partialRectangle;collapsible=0;dropTarget=0;pointerEvents=0;fillColor=none;points=[[0,0.5],[1,0.5]];portConstraint=eastwest;top=0;left=0;right=0;bottom=0;rounded=0;sketch=1;strokeColor=#788AA3;fontColor=#46495D;movable=0;resizable=0;rotatable=0;deletable=0;editable=0;connectable=0;" parent="GHRY8w92b_aW7LeH_ERA-1" vertex="1">
          <mxGeometry y="60" width="229" height="90" as="geometry" />
        </mxCell>
        <mxCell id="GHRY8w92b_aW7LeH_ERA-6" value="" style="shape=partialRectangle;overflow=hidden;connectable=0;fillColor=none;top=0;left=0;bottom=0;right=0;rounded=0;sketch=1;strokeColor=#788AA3;fontColor=#46495D;movable=0;resizable=0;rotatable=0;deletable=0;editable=0;" parent="GHRY8w92b_aW7LeH_ERA-5" vertex="1">
          <mxGeometry width="30" height="90" as="geometry">
            <mxRectangle width="30" height="90" as="alternateBounds" />
          </mxGeometry>
        </mxCell>
        <mxCell id="GHRY8w92b_aW7LeH_ERA-7" value="1、系统id&#xa;2、。。。&#xa;" style="shape=partialRectangle;overflow=hidden;connectable=0;fillColor=none;top=0;left=0;bottom=0;right=0;align=left;spacingLeft=6;rounded=0;sketch=1;strokeColor=#788AA3;fontColor=#46495D;movable=0;resizable=0;rotatable=0;deletable=0;editable=0;" parent="GHRY8w92b_aW7LeH_ERA-5" vertex="1">
          <mxGeometry x="30" width="199" height="90" as="geometry">
            <mxRectangle width="199" height="90" as="alternateBounds" />
          </mxGeometry>
        </mxCell>
        <mxCell id="GHRY8w92b_aW7LeH_ERA-47" value="" style="edgeStyle=none;rounded=0;sketch=1;hachureGap=4;jiggle=2;orthogonalLoop=1;jettySize=auto;html=1;strokeColor=#788AA3;fontFamily=Architects Daughter;fontSource=https%3A%2F%2Ffonts.googleapis.com%2Fcss%3Ffamily%3DArchitects%2BDaughter;fontSize=16;fontColor=#46495D;fillColor=#B2C9AB;entryX=1;entryY=0.5;entryDx=0;entryDy=0;exitX=-0.004;exitY=0.288;exitDx=0;exitDy=0;exitPerimeter=0;" parent="1" source="GHRY8w92b_aW7LeH_ERA-21" target="GHRY8w92b_aW7LeH_ERA-32" edge="1">
          <mxGeometry relative="1" as="geometry">
            <mxPoint x="-230" y="130" as="sourcePoint" />
          </mxGeometry>
        </mxCell>
        <mxCell id="GHRY8w92b_aW7LeH_ERA-17" value="Sys_Grading_Review" style="shape=table;startSize=30;container=1;collapsible=1;childLayout=tableLayout;fixedRows=1;rowLines=0;fontStyle=1;align=center;resizeLast=1;rounded=0;sketch=1;fillColor=#B2C9AB;strokeColor=#788AA3;fontColor=#46495D;" parent="1" vertex="1">
          <mxGeometry x="250" y="-50" width="370" height="590" as="geometry" />
        </mxCell>
        <mxCell id="GHRY8w92b_aW7LeH_ERA-18" value="" style="shape=partialRectangle;collapsible=0;dropTarget=0;pointerEvents=0;fillColor=none;points=[[0,0.5],[1,0.5]];portConstraint=eastwest;top=0;left=0;right=0;bottom=1;rounded=0;sketch=1;strokeColor=#788AA3;fontColor=#46495D;" parent="GHRY8w92b_aW7LeH_ERA-17" vertex="1">
          <mxGeometry y="30" width="370" height="30" as="geometry" />
        </mxCell>
        <mxCell id="GHRY8w92b_aW7LeH_ERA-19" value="PK" style="shape=partialRectangle;overflow=hidden;connectable=0;fillColor=none;top=0;left=0;bottom=0;right=0;fontStyle=1;rounded=0;sketch=1;strokeColor=#788AA3;fontColor=#46495D;" parent="GHRY8w92b_aW7LeH_ERA-18" vertex="1">
          <mxGeometry width="30" height="30" as="geometry">
            <mxRectangle width="30" height="30" as="alternateBounds" />
          </mxGeometry>
        </mxCell>
        <mxCell id="GHRY8w92b_aW7LeH_ERA-20" value="gradingReview_id int NOT NULL " style="shape=partialRectangle;overflow=hidden;connectable=0;fillColor=none;top=0;left=0;bottom=0;right=0;align=left;spacingLeft=6;fontStyle=5;rounded=0;sketch=1;strokeColor=#788AA3;fontColor=#46495D;" parent="GHRY8w92b_aW7LeH_ERA-18" vertex="1">
          <mxGeometry x="30" width="340" height="30" as="geometry">
            <mxRectangle width="340" height="30" as="alternateBounds" />
          </mxGeometry>
        </mxCell>
        <mxCell id="GHRY8w92b_aW7LeH_ERA-21" value="" style="shape=partialRectangle;collapsible=0;dropTarget=0;pointerEvents=0;fillColor=none;points=[[0,0.5],[1,0.5]];portConstraint=eastwest;top=0;left=0;right=0;bottom=0;rounded=0;sketch=1;strokeColor=#788AA3;fontColor=#46495D;" parent="GHRY8w92b_aW7LeH_ERA-17" vertex="1">
          <mxGeometry y="60" width="370" height="410" as="geometry" />
        </mxCell>
        <mxCell id="GHRY8w92b_aW7LeH_ERA-22" value="" style="shape=partialRectangle;overflow=hidden;connectable=0;fillColor=none;top=0;left=0;bottom=0;right=0;rounded=0;sketch=1;strokeColor=#788AA3;fontColor=#46495D;" parent="GHRY8w92b_aW7LeH_ERA-21" vertex="1">
          <mxGeometry width="30" height="410" as="geometry">
            <mxRectangle width="30" height="410" as="alternateBounds" />
          </mxGeometry>
        </mxCell>
        <mxCell id="GHRY8w92b_aW7LeH_ERA-23" value="1、项目名称&#xa;2、定级id&#xa;3、所属公司&#xa;4、辅助机构&#xa;5、定级专家&#xa;6、提交日期&#xa;7、定级受理单位&#xa;8、定级状态&#xa;&#xa;&#xa;&#xa;&#xa;&#xa;&#xa;" style="shape=partialRectangle;overflow=hidden;connectable=0;fillColor=none;top=0;left=0;bottom=0;right=0;align=left;spacingLeft=6;rounded=0;sketch=1;strokeColor=#788AA3;fontColor=#46495D;" parent="GHRY8w92b_aW7LeH_ERA-21" vertex="1">
          <mxGeometry x="30" width="340" height="410" as="geometry">
            <mxRectangle width="340" height="410" as="alternateBounds" />
          </mxGeometry>
        </mxCell>
        <mxCell id="GHRY8w92b_aW7LeH_ERA-24" value="Sys_Grading_Review_Comments" style="shape=table;startSize=30;container=1;collapsible=1;childLayout=tableLayout;fixedRows=1;rowLines=0;fontStyle=1;align=center;resizeLast=1;rounded=0;sketch=1;fillColor=#B2C9AB;strokeColor=#788AA3;fontColor=#46495D;" parent="1" vertex="1">
          <mxGeometry x="650" y="-150" width="450" height="270" as="geometry" />
        </mxCell>
        <mxCell id="GHRY8w92b_aW7LeH_ERA-25" value="" style="shape=partialRectangle;collapsible=0;dropTarget=0;pointerEvents=0;fillColor=none;points=[[0,0.5],[1,0.5]];portConstraint=eastwest;top=0;left=0;right=0;bottom=1;rounded=0;sketch=1;strokeColor=#788AA3;fontColor=#46495D;" parent="GHRY8w92b_aW7LeH_ERA-24" vertex="1">
          <mxGeometry y="30" width="450" height="30" as="geometry" />
        </mxCell>
        <mxCell id="GHRY8w92b_aW7LeH_ERA-26" value="PK" style="shape=partialRectangle;overflow=hidden;connectable=0;fillColor=none;top=0;left=0;bottom=0;right=0;fontStyle=1;rounded=0;sketch=1;strokeColor=#788AA3;fontColor=#46495D;" parent="GHRY8w92b_aW7LeH_ERA-25" vertex="1">
          <mxGeometry width="30" height="30" as="geometry">
            <mxRectangle width="30" height="30" as="alternateBounds" />
          </mxGeometry>
        </mxCell>
        <mxCell id="GHRY8w92b_aW7LeH_ERA-27" value="gradingReviewComments_id int NOT NULL " style="shape=partialRectangle;overflow=hidden;connectable=0;fillColor=none;top=0;left=0;bottom=0;right=0;align=left;spacingLeft=6;fontStyle=5;rounded=0;sketch=1;strokeColor=#788AA3;fontColor=#46495D;" parent="GHRY8w92b_aW7LeH_ERA-25" vertex="1">
          <mxGeometry x="30" width="420" height="30" as="geometry">
            <mxRectangle width="420" height="30" as="alternateBounds" />
          </mxGeometry>
        </mxCell>
        <mxCell id="GHRY8w92b_aW7LeH_ERA-28" value="" style="shape=partialRectangle;collapsible=0;dropTarget=0;pointerEvents=0;fillColor=none;points=[[0,0.5],[1,0.5]];portConstraint=eastwest;top=0;left=0;right=0;bottom=0;rounded=0;sketch=1;strokeColor=#788AA3;fontColor=#46495D;" parent="GHRY8w92b_aW7LeH_ERA-24" vertex="1">
          <mxGeometry y="60" width="450" height="210" as="geometry" />
        </mxCell>
        <mxCell id="GHRY8w92b_aW7LeH_ERA-29" value="" style="shape=partialRectangle;overflow=hidden;connectable=0;fillColor=none;top=0;left=0;bottom=0;right=0;rounded=0;sketch=1;strokeColor=#788AA3;fontColor=#46495D;" parent="GHRY8w92b_aW7LeH_ERA-28" vertex="1">
          <mxGeometry width="30" height="210" as="geometry">
            <mxRectangle width="30" height="210" as="alternateBounds" />
          </mxGeometry>
        </mxCell>
        <mxCell id="GHRY8w92b_aW7LeH_ERA-30" value="1、评审表id&#xa;2、评审次数&#xa;3、提交时间&#xa;4、审核时间&#xa;5、评审结果&#xa;6、评审专家&#xa;7、专家评审意见附件id&#xa;8、受理人&#xa;9、审核意见&#xa;10、备注" style="shape=partialRectangle;overflow=hidden;connectable=0;fillColor=none;top=0;left=0;bottom=0;right=0;align=left;spacingLeft=6;rounded=0;sketch=1;strokeColor=#788AA3;fontColor=#46495D;" parent="GHRY8w92b_aW7LeH_ERA-28" vertex="1">
          <mxGeometry x="30" width="420" height="210" as="geometry">
            <mxRectangle width="420" height="210" as="alternateBounds" />
          </mxGeometry>
        </mxCell>
        <mxCell id="GHRY8w92b_aW7LeH_ERA-31" value="SysGrading" style="shape=table;startSize=30;container=1;collapsible=1;childLayout=tableLayout;fixedRows=1;rowLines=0;fontStyle=1;align=center;resizeLast=1;rounded=0;sketch=1;fillColor=#B2C9AB;strokeColor=#788AA3;fontColor=#46495D;dashed=1;movable=1;resizable=1;rotatable=1;deletable=1;editable=1;connectable=1;" parent="1" vertex="1">
          <mxGeometry x="-550" width="229" height="160" as="geometry" />
        </mxCell>
        <mxCell id="GHRY8w92b_aW7LeH_ERA-32" value="" style="shape=partialRectangle;collapsible=0;dropTarget=0;pointerEvents=0;fillColor=none;points=[[0,0.5],[1,0.5]];portConstraint=eastwest;top=0;left=0;right=0;bottom=1;rounded=0;sketch=1;strokeColor=#788AA3;fontColor=#46495D;movable=0;resizable=0;rotatable=0;deletable=0;editable=0;connectable=0;" parent="GHRY8w92b_aW7LeH_ERA-31" vertex="1">
          <mxGeometry y="30" width="229" height="30" as="geometry" />
        </mxCell>
        <mxCell id="GHRY8w92b_aW7LeH_ERA-33" value="PK" style="shape=partialRectangle;overflow=hidden;connectable=0;fillColor=none;top=0;left=0;bottom=0;right=0;fontStyle=1;rounded=0;sketch=1;strokeColor=#788AA3;fontColor=#46495D;movable=0;resizable=0;rotatable=0;deletable=0;editable=0;" parent="GHRY8w92b_aW7LeH_ERA-32" vertex="1">
          <mxGeometry width="30" height="30" as="geometry">
            <mxRectangle width="30" height="30" as="alternateBounds" />
          </mxGeometry>
        </mxCell>
        <mxCell id="GHRY8w92b_aW7LeH_ERA-34" value="grading_id int NOT NULL " style="shape=partialRectangle;overflow=hidden;connectable=0;fillColor=none;top=0;left=0;bottom=0;right=0;align=left;spacingLeft=6;fontStyle=5;rounded=0;sketch=1;strokeColor=#788AA3;fontColor=#46495D;movable=0;resizable=0;rotatable=0;deletable=0;editable=0;" parent="GHRY8w92b_aW7LeH_ERA-32" vertex="1">
          <mxGeometry x="30" width="199" height="30" as="geometry">
            <mxRectangle width="199" height="30" as="alternateBounds" />
          </mxGeometry>
        </mxCell>
        <mxCell id="GHRY8w92b_aW7LeH_ERA-35" value="" style="shape=partialRectangle;collapsible=0;dropTarget=0;pointerEvents=0;fillColor=none;points=[[0,0.5],[1,0.5]];portConstraint=eastwest;top=0;left=0;right=0;bottom=0;rounded=0;sketch=1;strokeColor=#788AA3;fontColor=#46495D;movable=0;resizable=0;rotatable=0;deletable=0;editable=0;connectable=0;" parent="GHRY8w92b_aW7LeH_ERA-31" vertex="1">
          <mxGeometry y="60" width="229" height="90" as="geometry" />
        </mxCell>
        <mxCell id="GHRY8w92b_aW7LeH_ERA-36" value="" style="shape=partialRectangle;overflow=hidden;connectable=0;fillColor=none;top=0;left=0;bottom=0;right=0;rounded=0;sketch=1;strokeColor=#788AA3;fontColor=#46495D;movable=0;resizable=0;rotatable=0;deletable=0;editable=0;" parent="GHRY8w92b_aW7LeH_ERA-35" vertex="1">
          <mxGeometry width="30" height="90" as="geometry">
            <mxRectangle width="30" height="90" as="alternateBounds" />
          </mxGeometry>
        </mxCell>
        <mxCell id="GHRY8w92b_aW7LeH_ERA-37" value="1、系统id&#xa;2、。。。&#xa;" style="shape=partialRectangle;overflow=hidden;connectable=0;fillColor=none;top=0;left=0;bottom=0;right=0;align=left;spacingLeft=6;rounded=0;sketch=1;strokeColor=#788AA3;fontColor=#46495D;movable=0;resizable=0;rotatable=0;deletable=0;editable=0;" parent="GHRY8w92b_aW7LeH_ERA-35" vertex="1">
          <mxGeometry x="30" width="199" height="90" as="geometry">
            <mxRectangle width="199" height="90" as="alternateBounds" />
          </mxGeometry>
        </mxCell>
        <mxCell id="GHRY8w92b_aW7LeH_ERA-38" value="SysGrading" style="shape=table;startSize=30;container=1;collapsible=1;childLayout=tableLayout;fixedRows=1;rowLines=0;fontStyle=1;align=center;resizeLast=1;rounded=0;sketch=1;fillColor=#B2C9AB;strokeColor=#788AA3;fontColor=#46495D;dashed=1;movable=1;resizable=1;rotatable=1;deletable=1;editable=1;connectable=1;" parent="1" vertex="1">
          <mxGeometry x="-550" y="340" width="229" height="160" as="geometry" />
        </mxCell>
        <mxCell id="GHRY8w92b_aW7LeH_ERA-39" value="" style="shape=partialRectangle;collapsible=0;dropTarget=0;pointerEvents=0;fillColor=none;points=[[0,0.5],[1,0.5]];portConstraint=eastwest;top=0;left=0;right=0;bottom=1;rounded=0;sketch=1;strokeColor=#788AA3;fontColor=#46495D;movable=0;resizable=0;rotatable=0;deletable=0;editable=0;connectable=0;" parent="GHRY8w92b_aW7LeH_ERA-38" vertex="1">
          <mxGeometry y="30" width="229" height="30" as="geometry" />
        </mxCell>
        <mxCell id="GHRY8w92b_aW7LeH_ERA-40" value="PK" style="shape=partialRectangle;overflow=hidden;connectable=0;fillColor=none;top=0;left=0;bottom=0;right=0;fontStyle=1;rounded=0;sketch=1;strokeColor=#788AA3;fontColor=#46495D;movable=0;resizable=0;rotatable=0;deletable=0;editable=0;" parent="GHRY8w92b_aW7LeH_ERA-39" vertex="1">
          <mxGeometry width="30" height="30" as="geometry">
            <mxRectangle width="30" height="30" as="alternateBounds" />
          </mxGeometry>
        </mxCell>
        <mxCell id="GHRY8w92b_aW7LeH_ERA-41" value="grading_id int NOT NULL " style="shape=partialRectangle;overflow=hidden;connectable=0;fillColor=none;top=0;left=0;bottom=0;right=0;align=left;spacingLeft=6;fontStyle=5;rounded=0;sketch=1;strokeColor=#788AA3;fontColor=#46495D;movable=0;resizable=0;rotatable=0;deletable=0;editable=0;" parent="GHRY8w92b_aW7LeH_ERA-39" vertex="1">
          <mxGeometry x="30" width="199" height="30" as="geometry">
            <mxRectangle width="199" height="30" as="alternateBounds" />
          </mxGeometry>
        </mxCell>
        <mxCell id="GHRY8w92b_aW7LeH_ERA-42" value="" style="shape=partialRectangle;collapsible=0;dropTarget=0;pointerEvents=0;fillColor=none;points=[[0,0.5],[1,0.5]];portConstraint=eastwest;top=0;left=0;right=0;bottom=0;rounded=0;sketch=1;strokeColor=#788AA3;fontColor=#46495D;movable=0;resizable=0;rotatable=0;deletable=0;editable=0;connectable=0;" parent="GHRY8w92b_aW7LeH_ERA-38" vertex="1">
          <mxGeometry y="60" width="229" height="90" as="geometry" />
        </mxCell>
        <mxCell id="GHRY8w92b_aW7LeH_ERA-43" value="" style="shape=partialRectangle;overflow=hidden;connectable=0;fillColor=none;top=0;left=0;bottom=0;right=0;rounded=0;sketch=1;strokeColor=#788AA3;fontColor=#46495D;movable=0;resizable=0;rotatable=0;deletable=0;editable=0;" parent="GHRY8w92b_aW7LeH_ERA-42" vertex="1">
          <mxGeometry width="30" height="90" as="geometry">
            <mxRectangle width="30" height="90" as="alternateBounds" />
          </mxGeometry>
        </mxCell>
        <mxCell id="GHRY8w92b_aW7LeH_ERA-44" value="1、系统id&#xa;2、。。。&#xa;" style="shape=partialRectangle;overflow=hidden;connectable=0;fillColor=none;top=0;left=0;bottom=0;right=0;align=left;spacingLeft=6;rounded=0;sketch=1;strokeColor=#788AA3;fontColor=#46495D;movable=0;resizable=0;rotatable=0;deletable=0;editable=0;" parent="GHRY8w92b_aW7LeH_ERA-42" vertex="1">
          <mxGeometry x="30" width="199" height="90" as="geometry">
            <mxRectangle width="199" height="90" as="alternateBounds" />
          </mxGeometry>
        </mxCell>
        <mxCell id="GHRY8w92b_aW7LeH_ERA-48" value="" style="edgeStyle=none;rounded=0;sketch=1;hachureGap=4;jiggle=2;orthogonalLoop=1;jettySize=auto;html=1;strokeColor=#788AA3;fontFamily=Architects Daughter;fontSource=https%3A%2F%2Ffonts.googleapis.com%2Fcss%3Ffamily%3DArchitects%2BDaughter;fontSize=16;fontColor=#46495D;fillColor=#B2C9AB;entryX=1;entryY=0.5;entryDx=0;entryDy=0;" parent="1" target="GHRY8w92b_aW7LeH_ERA-2" edge="1">
          <mxGeometry relative="1" as="geometry">
            <mxPoint x="-250" y="190" as="sourcePoint" />
            <mxPoint x="-310.9999999999998" y="55" as="targetPoint" />
          </mxGeometry>
        </mxCell>
        <mxCell id="GHRY8w92b_aW7LeH_ERA-49" value="" style="edgeStyle=none;rounded=0;sketch=1;hachureGap=4;jiggle=2;orthogonalLoop=1;jettySize=auto;html=1;strokeColor=#788AA3;fontFamily=Architects Daughter;fontSource=https%3A%2F%2Ffonts.googleapis.com%2Fcss%3Ffamily%3DArchitects%2BDaughter;fontSize=16;fontColor=#46495D;fillColor=#B2C9AB;entryX=1;entryY=0.5;entryDx=0;entryDy=0;" parent="1" target="GHRY8w92b_aW7LeH_ERA-39" edge="1">
          <mxGeometry relative="1" as="geometry">
            <mxPoint x="90" y="380" as="sourcePoint" />
            <mxPoint x="-300.9999999999998" y="65" as="targetPoint" />
          </mxGeometry>
        </mxCell>
        <mxCell id="GHRY8w92b_aW7LeH_ERA-60" value="Sys_Grading_Review_Comments" style="shape=table;startSize=30;container=1;collapsible=1;childLayout=tableLayout;fixedRows=1;rowLines=0;fontStyle=1;align=center;resizeLast=1;rounded=0;sketch=1;fillColor=#B2C9AB;strokeColor=#788AA3;fontColor=#46495D;" parent="1" vertex="1">
          <mxGeometry x="650" y="140" width="450" height="270" as="geometry" />
        </mxCell>
        <mxCell id="GHRY8w92b_aW7LeH_ERA-61" value="" style="shape=partialRectangle;collapsible=0;dropTarget=0;pointerEvents=0;fillColor=none;points=[[0,0.5],[1,0.5]];portConstraint=eastwest;top=0;left=0;right=0;bottom=1;rounded=0;sketch=1;strokeColor=#788AA3;fontColor=#46495D;" parent="GHRY8w92b_aW7LeH_ERA-60" vertex="1">
          <mxGeometry y="30" width="450" height="30" as="geometry" />
        </mxCell>
        <mxCell id="GHRY8w92b_aW7LeH_ERA-62" value="PK" style="shape=partialRectangle;overflow=hidden;connectable=0;fillColor=none;top=0;left=0;bottom=0;right=0;fontStyle=1;rounded=0;sketch=1;strokeColor=#788AA3;fontColor=#46495D;" parent="GHRY8w92b_aW7LeH_ERA-61" vertex="1">
          <mxGeometry width="30" height="30" as="geometry">
            <mxRectangle width="30" height="30" as="alternateBounds" />
          </mxGeometry>
        </mxCell>
        <mxCell id="GHRY8w92b_aW7LeH_ERA-63" value="gradingReviewComments_id int NOT NULL " style="shape=partialRectangle;overflow=hidden;connectable=0;fillColor=none;top=0;left=0;bottom=0;right=0;align=left;spacingLeft=6;fontStyle=5;rounded=0;sketch=1;strokeColor=#788AA3;fontColor=#46495D;" parent="GHRY8w92b_aW7LeH_ERA-61" vertex="1">
          <mxGeometry x="30" width="420" height="30" as="geometry">
            <mxRectangle width="420" height="30" as="alternateBounds" />
          </mxGeometry>
        </mxCell>
        <mxCell id="GHRY8w92b_aW7LeH_ERA-64" value="" style="shape=partialRectangle;collapsible=0;dropTarget=0;pointerEvents=0;fillColor=none;points=[[0,0.5],[1,0.5]];portConstraint=eastwest;top=0;left=0;right=0;bottom=0;rounded=0;sketch=1;strokeColor=#788AA3;fontColor=#46495D;" parent="GHRY8w92b_aW7LeH_ERA-60" vertex="1">
          <mxGeometry y="60" width="450" height="210" as="geometry" />
        </mxCell>
        <mxCell id="GHRY8w92b_aW7LeH_ERA-65" value="" style="shape=partialRectangle;overflow=hidden;connectable=0;fillColor=none;top=0;left=0;bottom=0;right=0;rounded=0;sketch=1;strokeColor=#788AA3;fontColor=#46495D;" parent="GHRY8w92b_aW7LeH_ERA-64" vertex="1">
          <mxGeometry width="30" height="210" as="geometry">
            <mxRectangle width="30" height="210" as="alternateBounds" />
          </mxGeometry>
        </mxCell>
        <mxCell id="GHRY8w92b_aW7LeH_ERA-66" value="1、评审表id&#xa;2、评审次数&#xa;3、提交时间&#xa;4、审核时间&#xa;5、评审结果&#xa;6、评审专家&#xa;7、专家评审意见附件id&#xa;8、受理人&#xa;9、审核意见&#xa;10、备注" style="shape=partialRectangle;overflow=hidden;connectable=0;fillColor=none;top=0;left=0;bottom=0;right=0;align=left;spacingLeft=6;rounded=0;sketch=1;strokeColor=#788AA3;fontColor=#46495D;" parent="GHRY8w92b_aW7LeH_ERA-64" vertex="1">
          <mxGeometry x="30" width="420" height="210" as="geometry">
            <mxRectangle width="420" height="210" as="alternateBounds" />
          </mxGeometry>
        </mxCell>
        <mxCell id="GHRY8w92b_aW7LeH_ERA-67" value="Sys_Grading_Review_Comments" style="shape=table;startSize=30;container=1;collapsible=1;childLayout=tableLayout;fixedRows=1;rowLines=0;fontStyle=1;align=center;resizeLast=1;rounded=0;sketch=1;fillColor=#B2C9AB;strokeColor=#788AA3;fontColor=#46495D;" parent="1" vertex="1">
          <mxGeometry x="740" y="470" width="450" height="270" as="geometry" />
        </mxCell>
        <mxCell id="GHRY8w92b_aW7LeH_ERA-68" value="" style="shape=partialRectangle;collapsible=0;dropTarget=0;pointerEvents=0;fillColor=none;points=[[0,0.5],[1,0.5]];portConstraint=eastwest;top=0;left=0;right=0;bottom=1;rounded=0;sketch=1;strokeColor=#788AA3;fontColor=#46495D;" parent="GHRY8w92b_aW7LeH_ERA-67" vertex="1">
          <mxGeometry y="30" width="450" height="30" as="geometry" />
        </mxCell>
        <mxCell id="GHRY8w92b_aW7LeH_ERA-69" value="PK" style="shape=partialRectangle;overflow=hidden;connectable=0;fillColor=none;top=0;left=0;bottom=0;right=0;fontStyle=1;rounded=0;sketch=1;strokeColor=#788AA3;fontColor=#46495D;" parent="GHRY8w92b_aW7LeH_ERA-68" vertex="1">
          <mxGeometry width="30" height="30" as="geometry">
            <mxRectangle width="30" height="30" as="alternateBounds" />
          </mxGeometry>
        </mxCell>
        <mxCell id="GHRY8w92b_aW7LeH_ERA-70" value="gradingReviewComments_id int NOT NULL " style="shape=partialRectangle;overflow=hidden;connectable=0;fillColor=none;top=0;left=0;bottom=0;right=0;align=left;spacingLeft=6;fontStyle=5;rounded=0;sketch=1;strokeColor=#788AA3;fontColor=#46495D;" parent="GHRY8w92b_aW7LeH_ERA-68" vertex="1">
          <mxGeometry x="30" width="420" height="30" as="geometry">
            <mxRectangle width="420" height="30" as="alternateBounds" />
          </mxGeometry>
        </mxCell>
        <mxCell id="GHRY8w92b_aW7LeH_ERA-71" value="" style="shape=partialRectangle;collapsible=0;dropTarget=0;pointerEvents=0;fillColor=none;points=[[0,0.5],[1,0.5]];portConstraint=eastwest;top=0;left=0;right=0;bottom=0;rounded=0;sketch=1;strokeColor=#788AA3;fontColor=#46495D;" parent="GHRY8w92b_aW7LeH_ERA-67" vertex="1">
          <mxGeometry y="60" width="450" height="210" as="geometry" />
        </mxCell>
        <mxCell id="GHRY8w92b_aW7LeH_ERA-72" value="" style="shape=partialRectangle;overflow=hidden;connectable=0;fillColor=none;top=0;left=0;bottom=0;right=0;rounded=0;sketch=1;strokeColor=#788AA3;fontColor=#46495D;" parent="GHRY8w92b_aW7LeH_ERA-71" vertex="1">
          <mxGeometry width="30" height="210" as="geometry">
            <mxRectangle width="30" height="210" as="alternateBounds" />
          </mxGeometry>
        </mxCell>
        <mxCell id="GHRY8w92b_aW7LeH_ERA-73" value="1、评审表id&#xa;2、评审次数&#xa;3、提交时间&#xa;4、审核时间&#xa;5、评审结果&#xa;6、评审专家&#xa;7、专家评审意见附件id&#xa;8、受理人&#xa;9、审核意见&#xa;10、备注" style="shape=partialRectangle;overflow=hidden;connectable=0;fillColor=none;top=0;left=0;bottom=0;right=0;align=left;spacingLeft=6;rounded=0;sketch=1;strokeColor=#788AA3;fontColor=#46495D;" parent="GHRY8w92b_aW7LeH_ERA-71" vertex="1">
          <mxGeometry x="30" width="420" height="210" as="geometry">
            <mxRectangle width="420" height="210" as="alternateBounds" />
          </mxGeometry>
        </mxCell>
        <mxCell id="GHRY8w92b_aW7LeH_ERA-74" style="edgeStyle=none;rounded=0;sketch=1;hachureGap=4;jiggle=2;orthogonalLoop=1;jettySize=auto;html=1;exitX=0;exitY=0.5;exitDx=0;exitDy=0;entryX=1;entryY=0.5;entryDx=0;entryDy=0;strokeColor=#788AA3;fontFamily=Architects Daughter;fontSource=https%3A%2F%2Ffonts.googleapis.com%2Fcss%3Ffamily%3DArchitects%2BDaughter;fontSize=16;fontColor=#46495D;fillColor=#B2C9AB;" parent="1" source="GHRY8w92b_aW7LeH_ERA-25" target="GHRY8w92b_aW7LeH_ERA-18" edge="1">
          <mxGeometry relative="1" as="geometry" />
        </mxCell>
        <mxCell id="GHRY8w92b_aW7LeH_ERA-75" style="edgeStyle=none;rounded=0;sketch=1;hachureGap=4;jiggle=2;orthogonalLoop=1;jettySize=auto;html=1;exitX=0;exitY=0.5;exitDx=0;exitDy=0;entryX=1;entryY=0.5;entryDx=0;entryDy=0;strokeColor=#788AA3;fontFamily=Architects Daughter;fontSource=https%3A%2F%2Ffonts.googleapis.com%2Fcss%3Ffamily%3DArchitects%2BDaughter;fontSize=16;fontColor=#46495D;fillColor=#B2C9AB;" parent="1" source="GHRY8w92b_aW7LeH_ERA-61" target="GHRY8w92b_aW7LeH_ERA-18" edge="1">
          <mxGeometry relative="1" as="geometry" />
        </mxCell>
        <mxCell id="GHRY8w92b_aW7LeH_ERA-92" style="edgeStyle=none;rounded=0;sketch=1;hachureGap=4;jiggle=2;orthogonalLoop=1;jettySize=auto;html=1;exitX=0;exitY=0.5;exitDx=0;exitDy=0;strokeColor=#788AA3;fontFamily=Architects Daughter;fontSource=https%3A%2F%2Ffonts.googleapis.com%2Fcss%3Ffamily%3DArchitects%2BDaughter;fontSize=16;fontColor=#46495D;fillColor=#B2C9AB;entryX=1;entryY=0.5;entryDx=0;entryDy=0;" parent="1" source="GHRY8w92b_aW7LeH_ERA-68" target="GHRY8w92b_aW7LeH_ERA-18" edge="1">
          <mxGeometry relative="1" as="geometry">
            <mxPoint x="150" y="20" as="targetPoint" />
          </mxGeometry>
        </mxCell>
        <mxCell id="G13Arc0pPw0FUtiQ2deR-1" value="Sys_Grading_Review_relative" style="shape=table;startSize=30;container=1;collapsible=1;childLayout=tableLayout;fixedRows=1;rowLines=0;fontStyle=1;align=center;resizeLast=1;rounded=0;sketch=1;fillColor=#B2C9AB;strokeColor=#788AA3;fontColor=#46495D;" vertex="1" parent="1">
          <mxGeometry x="-210" y="130" width="370" height="140" as="geometry" />
        </mxCell>
        <mxCell id="G13Arc0pPw0FUtiQ2deR-2" value="" style="shape=partialRectangle;collapsible=0;dropTarget=0;pointerEvents=0;fillColor=none;points=[[0,0.5],[1,0.5]];portConstraint=eastwest;top=0;left=0;right=0;bottom=1;rounded=0;sketch=1;strokeColor=#788AA3;fontColor=#46495D;" vertex="1" parent="G13Arc0pPw0FUtiQ2deR-1">
          <mxGeometry y="30" width="370" height="30" as="geometry" />
        </mxCell>
        <mxCell id="G13Arc0pPw0FUtiQ2deR-3" value="PK" style="shape=partialRectangle;overflow=hidden;connectable=0;fillColor=none;top=0;left=0;bottom=0;right=0;fontStyle=1;rounded=0;sketch=1;strokeColor=#788AA3;fontColor=#46495D;" vertex="1" parent="G13Arc0pPw0FUtiQ2deR-2">
          <mxGeometry width="30" height="30" as="geometry">
            <mxRectangle width="30" height="30" as="alternateBounds" />
          </mxGeometry>
        </mxCell>
        <mxCell id="G13Arc0pPw0FUtiQ2deR-4" value="gradingReview_id int NOT NULL " style="shape=partialRectangle;overflow=hidden;connectable=0;fillColor=none;top=0;left=0;bottom=0;right=0;align=left;spacingLeft=6;fontStyle=5;rounded=0;sketch=1;strokeColor=#788AA3;fontColor=#46495D;" vertex="1" parent="G13Arc0pPw0FUtiQ2deR-2">
          <mxGeometry x="30" width="340" height="30" as="geometry">
            <mxRectangle width="340" height="30" as="alternateBounds" />
          </mxGeometry>
        </mxCell>
        <mxCell id="G13Arc0pPw0FUtiQ2deR-5" value="" style="shape=partialRectangle;collapsible=0;dropTarget=0;pointerEvents=0;fillColor=none;points=[[0,0.5],[1,0.5]];portConstraint=eastwest;top=0;left=0;right=0;bottom=0;rounded=0;sketch=1;strokeColor=#788AA3;fontColor=#46495D;" vertex="1" parent="G13Arc0pPw0FUtiQ2deR-1">
          <mxGeometry y="60" width="370" height="80" as="geometry" />
        </mxCell>
        <mxCell id="G13Arc0pPw0FUtiQ2deR-6" value="" style="shape=partialRectangle;overflow=hidden;connectable=0;fillColor=none;top=0;left=0;bottom=0;right=0;rounded=0;sketch=1;strokeColor=#788AA3;fontColor=#46495D;" vertex="1" parent="G13Arc0pPw0FUtiQ2deR-5">
          <mxGeometry width="30" height="80" as="geometry">
            <mxRectangle width="30" height="80" as="alternateBounds" />
          </mxGeometry>
        </mxCell>
        <mxCell id="G13Arc0pPw0FUtiQ2deR-7" value="1、项目id&#xa;2、定级id&#xa;&#xa;&#xa;&#xa;&#xa;&#xa;&#xa;" style="shape=partialRectangle;overflow=hidden;connectable=0;fillColor=none;top=0;left=0;bottom=0;right=0;align=left;spacingLeft=6;rounded=0;sketch=1;strokeColor=#788AA3;fontColor=#46495D;" vertex="1" parent="G13Arc0pPw0FUtiQ2deR-5">
          <mxGeometry x="30" width="340" height="80" as="geometry">
            <mxRectangle width="340" height="80" as="alternateBounds" />
          </mxGeometry>
        </mxCell>
      </root>
    </mxGraphModel>
  </diagram>
</mxfile>
